<svg version="1.2" xmlns="http://www.w3.org/2000/svg" viewBox="0 0 1089 853" width="1089" height="853"><style>.a{fill:none;stroke:#fff;stroke-width:49.3}.b{fill:none;stroke:#fff;stroke-linecap:round;stroke-linejoin:round;stroke-width:49.3}.c{fill:#fff;stroke:#fff;stroke-linecap:round;stroke-linejoin:round;stroke-width:26.6}</style><path class="a" d="m517.9 458.7c0 88.9 6 161-113.4 161-119.4 0-113.5-72.1-113.5-161 0-89 31.3-161.1 113.5-161.1 82.2 0 113.4 72.1 113.4 161.1z"/><path class="a" d="m884.8 755.3c0 39-3.9 70.7-56.3 70.7-52.4 0-56.3-31.7-56.3-70.7 0-39.1 28.8-70.7 56.3-70.7 27.5 0 56.3 31.6 56.3 70.7z"/><path class="a" d="m1059.8 458.7c0 88.9 6 161-113.4 161-119.4 0-113.5-72.1-113.5-161 0-89 32.7-161.1 113.5-161.1 80.7 0 113.4 72.1 113.4 161.1z"/><path fill-rule="evenodd" class="b" d="m581.5 296.9c0 135.6 2.2 203.6 1.1 269.6-1 66.1 171.7 73.6 199.3 10.4"/><path fill-rule="evenodd" class="b" d="m219.3 298.2v320.9"/><path fill-rule="evenodd" class="b" d="m27.3 298.2v320.9"/><path fill-rule="evenodd" class="b" d="m206.7 474.5c0 0-44.7 20-90.2 20-45.4 0-84.7-20-84.7-20"/><path class="c" d="m436.3 470.8c0 9.2-1 18.3-3 26.8-2 8.4-4.9 16.1-8.5 22.6-3.6 6.5-8 11.7-12.7 15.2-4.8 3.5-9.9 5.3-15.1 5.3-5.1 0-10.2-1.8-15-5.3-4.7-3.5-9.1-8.7-12.7-15.2-3.7-6.5-6.6-14.2-8.5-22.6-2-8.5-3-17.6-3-26.8 0-9.2 1-18.2 3-26.7 1.9-8.5 4.8-16.2 8.5-22.7 3.6-6.5 8-11.6 12.7-15.1 4.8-3.5 9.9-5.4 15-5.4 5.2 0 10.3 1.9 15.1 5.4 4.7 3.5 9.1 8.6 12.7 15.1 3.6 6.5 6.5 14.2 8.5 22.7 2 8.5 3 17.5 3 26.7z"/><path class="c" d="m978.2 470.8c0 9.2-1 18.3-3 26.8-2 8.4-4.9 16.1-8.5 22.6-3.7 6.5-8 11.7-12.8 15.2-4.7 3.5-9.8 5.3-15 5.3-5.1 0-10.2-1.8-15-5.3-4.8-3.5-9.1-8.7-12.7-15.2-3.7-6.5-6.6-14.2-8.5-22.6-2-8.5-3-17.6-3-26.8 0-9.2 1-18.2 3-26.7 1.9-8.5 4.8-16.2 8.5-22.7 3.6-6.5 7.9-11.6 12.7-15.1 4.8-3.5 9.9-5.4 15-5.4 5.2 0 10.3 1.9 15 5.4 4.8 3.5 9.1 8.6 12.8 15.1 3.6 6.5 6.5 14.2 8.5 22.7 2 8.5 3 17.5 3 26.7z"/><path fill-rule="evenodd" class="b" d="m24.6 826.8v-142.2c0 0 22.3 47 58.5 47 36.1 0 59.8-47 59.8-47v142.2"/><path fill-rule="evenodd" class="b" d="m321.7 827.2h-116.5v-73.2-69.1h116.9"/><path fill-rule="evenodd" class="b" d="m207.3 754.7h69.7"/><path fill-rule="evenodd" class="b" d="m573.4 684.7h143.9"/><path fill-rule="evenodd" class="b" d="m644 685.6v141.7"/><path fill-rule="evenodd" class="b" d="m374.5 826.9v-142.9l143.9 142.5-0.5-142.5"/><path fill-rule="evenodd" class="b" d="m951.4 826.1v-140.7c0 0 112.5-9.5 112.5 45.7 0 55.2-111.6 48.7-111.6 48.7 0 0 0.7 8.7 16 3.1 40.7-3.1 94.2 13.2 95 41.4"/><path fill-rule="evenodd" class="b" d="m449.1 220.1c-66.6-47.4-36.2-139-16.6-152.9 95.7 79.4 142.2 97.9 207 126.5-22.1-74.9 8.1-130.8 28.6-169.1 66.7 76.6 132.3 154 241.6 197.9"/></svg>