<?xml version="1.0" encoding="UTF-8" standalone="no"?>
<!-- Created with Inkscape (http://www.inkscape.org/) -->

<svg
   width="1088.7649"
   height="852.07928"
   viewBox="0 0 1088.7649 852.07928"
   version="1.1"
   id="svg1"
   inkscape:version="1.4.3 (0d15f75, 2025-12-25)"
   sodipodi:docname="dibujo.svg"
   inkscape:export-filename="..\Documents\GitHub\TutorVirtual-CrazyDigital\Backend\mistral\TutorDigitalMistra\front\img\logo.svg"
   inkscape:export-xdpi="96"
   inkscape:export-ydpi="96"
   xmlns:inkscape="http://www.inkscape.org/namespaces/inkscape"
   xmlns:sodipodi="http://sodipodi.sourceforge.net/DTD/sodipodi-0.dtd"
   xmlns="http://www.w3.org/2000/svg"
   xmlns:svg="http://www.w3.org/2000/svg">
  <sodipodi:namedview
     id="namedview1"
     pagecolor="#000000"
     bordercolor="#000000"
     borderopacity="0.25"
     inkscape:showpageshadow="2"
     inkscape:pageopacity="0.0"
     inkscape:pagecheckerboard="0"
     inkscape:deskcolor="#d1d1d1"
     inkscape:document-units="px"
     inkscape:zoom="0.57943472"
     inkscape:cx="612.66608"
     inkscape:cy="639.41629"
     inkscape:window-width="1920"
     inkscape:window-height="1129"
     inkscape:window-x="-8"
     inkscape:window-y="-8"
     inkscape:window-maximized="1"
     inkscape:current-layer="layer1">
    <inkscape:page
       x="0"
       y="0"
       width="1088.7649"
       height="852.07928"
       id="page2"
       margin="0"
       bleed="0" />
  </sodipodi:namedview>
  <defs
     id="defs1" />
  <g
     inkscape:label="Capa 1"
     inkscape:groupmode="layer"
     id="layer1"
     transform="translate(-285.32944,-133.48322)">
    <path
       id="path1"
       style="fill:none;stroke:#ffffff;stroke-width:49.3;stroke-opacity:1"
       d="m 803.38981,592.25277 c 0,88.96465 5.93388,161.08474 -113.49152,161.08475 -119.4254,10e-6 -113.49153,-72.12009 -113.49153,-161.08475 0,-88.96466 31.28647,-161.08476 113.49153,-161.08475 82.20506,10e-6 113.49152,72.1201 113.49152,161.08475 z"
       sodipodi:nodetypes="szszs" />
    <path
       id="path1-6"
       style="fill:none;stroke:#ffffff;stroke-width:49.3;stroke-dasharray:none;stroke-opacity:1"
       d="m 1170.3121,888.92622 c 0,39.03876 -3.9231,70.68594 -56.3284,70.68594 -52.4053,5e-5 -56.3285,-31.64714 -56.3285,-70.68594 0,-39.03878 28.8239,-70.68598 56.3285,-70.68597 27.5046,0 56.3284,31.6472 56.3284,70.68597 z"
       sodipodi:nodetypes="szsss" />
    <path
       id="path1-2"
       style="fill:none;stroke:#ffffff;stroke-width:49.3;stroke-opacity:1"
       d="m 1345.3898,592.25277 c 0,88.96465 5.9339,161.08474 -113.4915,161.08475 -119.4254,10e-6 -113.4916,-72.12009 -113.4916,-161.08475 0,-88.96466 32.6908,-161.08476 113.4916,-161.08475 80.8008,10e-6 113.4915,72.1201 113.4915,161.08475 z"
       sodipodi:nodetypes="szszs" />
    <path
       style="fill:none;stroke:#ffffff;stroke-width:49.3;stroke-linecap:round;stroke-linejoin:round;stroke-dasharray:none;stroke-opacity:1"
       d="m 867.00175,430.48341 c 0,135.62182 2.15606,203.59213 1.08831,269.64165 -1.06775,66.04952 171.67094,73.5806 199.33214,10.35492"
       id="path3"
       sodipodi:nodetypes="czc" />
    <path
       style="fill:none;stroke:#ffffff;stroke-width:49.3;stroke-linecap:round;stroke-linejoin:round;stroke-opacity:1"
       d="M 504.67797,431.77819 V 752.72734"
       id="path2" />
    <path
       style="fill:none;stroke:#ffffff;stroke-width:49.3;stroke-linecap:round;stroke-linejoin:round;stroke-opacity:1"
       d="M 312.66514,431.77819 V 752.72734"
       id="path2-8" />
    <path
       style="fill:none;stroke:#ffffff;stroke-width:49.3;stroke-linecap:round;stroke-linejoin:round;stroke-opacity:1"
       d="m 492.07373,608.09068 c 0,0 -44.75169,20 -90.20932,20 -45.45763,0 -84.73984,-20 -84.73984,-20"
       id="path2-8-1"
       sodipodi:nodetypes="czc" />
    <path
       id="path4"
       style="fill:#ffffff;fill-opacity:1;stroke:#ffffff;stroke-width:26.6;stroke-linecap:round;stroke-linejoin:round;stroke-opacity:1"
       d="m 651.70552,604.41071 a 39.262405,69.895706 0 0 1 -39.2624,69.8957 39.262405,69.895706 0 0 1 -39.26241,-69.8957 39.262405,69.895706 0 0 1 39.26241,-69.89571 39.262405,69.895706 0 0 1 39.2624,69.89571 z" />
    <path
       id="path4-2"
       style="fill:#ffffff;fill-opacity:1;stroke:#ffffff;stroke-width:26.6;stroke-linecap:round;stroke-linejoin:round;stroke-opacity:1"
       d="m 1193.7055,604.41071 a 39.262405,69.895706 0 0 1 -39.2624,69.8957 39.262405,69.895706 0 0 1 -39.2624,-69.8957 39.262405,69.895706 0 0 1 39.2624,-69.89571 39.262405,69.895706 0 0 1 39.2624,69.89571 z" />
    <path
       style="fill:none;fill-opacity:1;stroke:#ffffff;stroke-width:49.3;stroke-linecap:round;stroke-linejoin:round;stroke-dasharray:none;stroke-opacity:1"
       d="M 309.97944,960.42041 V 818.2067 c 0,0 22.25219,47.01191 58.43462,47.01191 36.18243,0 59.84268,-47.01191 59.84268,-47.01191 v 142.21371"
       id="path5"
       sodipodi:nodetypes="cczcc" />
    <g
       id="g11"
       transform="matrix(0.81588063,0,0,0.81588063,57.594499,159.66238)"
       style="stroke-width:60.4255;stroke-dasharray:none">
      <path
         style="fill:none;fill-opacity:1;stroke:#ffffff;stroke-width:60.4255;stroke-linecap:round;stroke-linejoin:round;stroke-dasharray:none;stroke-opacity:1"
         d="M 673.45499,981.9915 H 530.6476 V 892.24892 807.603 h 143.32546"
         id="path6"
         sodipodi:nodetypes="ccccc" />
      <path
         style="fill:none;fill-opacity:1;stroke:#ffffff;stroke-width:60.4255;stroke-linecap:round;stroke-linejoin:round;stroke-dasharray:none;stroke-opacity:1"
         d="m 533.27837,893.11183 h 85.42808"
         id="path7" />
    </g>
    <g
       id="g10"
       transform="matrix(0.81588063,0,0,0.81588063,93.493246,159.66238)"
       style="stroke-width:60.4255;stroke-dasharray:none">
      <path
         style="fill:none;fill-opacity:1;stroke:#ffffff;stroke-width:60.4255;stroke-linecap:round;stroke-linejoin:round;stroke-dasharray:none;stroke-opacity:1"
         d="m 938.0339,807.25424 h 176.4746"
         id="path8"
         sodipodi:nodetypes="cc" />
      <path
         style="fill:none;fill-opacity:1;stroke:#ffffff;stroke-width:60.4255;stroke-linecap:round;stroke-linejoin:round;stroke-dasharray:none;stroke-opacity:1"
         d="M 1024.6102,808.47458 V 982.0678"
         id="path9"
         sodipodi:nodetypes="cc" />
    </g>
    <path
       style="fill:none;fill-opacity:1;stroke:#ffffff;stroke-width:49.3;stroke-linecap:round;stroke-linejoin:round;stroke-dasharray:none;stroke-opacity:1"
       d="M 659.90801,960.52529 V 817.59406 l 143.95047,142.51849 -0.55314,-142.51848"
       id="path10"
       sodipodi:nodetypes="cccc" />
    <path
       style="fill:none;fill-opacity:1;stroke:#ffffff;stroke-width:49.3;stroke-linecap:round;stroke-linejoin:round;stroke-dasharray:none;stroke-opacity:1"
       d="m 1236.9737,959.79562 v -140.7473 c 0,0 112.4706,-9.47942 112.4706,45.72571 0,55.20513 -111.5875,48.70063 -111.5875,48.70063 0,0 0.7139,8.66862 16.0159,3.07244 40.6913,-3.10704 94.1962,13.2032 95.0036,41.45971"
       id="path11"
       sodipodi:nodetypes="cczccc" />
    <path
       style="fill:none;fill-opacity:1;stroke:#ffffff;stroke-width:49.3;stroke-linecap:round;stroke-linejoin:round;stroke-dasharray:none;stroke-opacity:1"
       d="m 734.48856,353.65754 c -66.62517,-47.39408 -36.14765,-139.07468 -16.61394,-152.9345 95.80061,79.35249 142.2543,97.90482 207.10193,126.50294 -22.16356,-74.94164 8.11761,-130.87267 28.59846,-169.09461 66.73349,76.59656 132.37189,154.03407 241.68719,197.93017"
       id="path12"
       sodipodi:nodetypes="ccccc" />
  </g>
</svg>
